<?xml version="1.0" encoding="utf-8"?>
<!-- Generator: Adobe Illustrator 28.0.0, SVG Export Plug-In . SVG Version: 6.00 Build 0)  -->
<svg version="1.1" id="Layer_1" xmlns="http://www.w3.org/2000/svg" xmlns:xlink="http://www.w3.org/1999/xlink" x="0px" y="0px"
	 viewBox="0 0 187 60" style="enable-background:new 0 0 187 60;" xml:space="preserve">
<style type="text/css">
	.st0{fill:#FFFFFF;}
	.st1{fill:url(#SVGID_1_);}
	.st2{fill:url(#SVGID_00000099632423132815358900000016471610086358626990_);}
	.st3{fill:url(#SVGID_00000144331159569184549820000001451103351136210568_);}
	.st4{fill:url(#SVGID_00000111182626308547473190000015043856433499323024_);}
	.st5{fill:url(#SVGID_00000129921224641208477460000002706013920631201467_);}
	.st6{fill:url(#SVGID_00000072959801722153478580000006442771250469684623_);}
	.st7{fill:#292930;}
</style>
<path class="st0" d="M0,30c0-9.3,0-14,1.5-17.7c2-4.9,5.9-8.8,10.8-10.8C16,0,20.7,0,30,0l0,0c9.3,0,14,0,17.7,1.5
	c4.9,2,8.8,5.9,10.8,10.8C60,16,60,20.7,60,30l0,0c0,9.3,0,14-1.5,17.7c-2,4.9-5.9,8.8-10.8,10.8C44,60,39.3,60,30,60l0,0
	c-9.3,0-14,0-17.7-1.5c-4.9-2-8.8-5.9-10.8-10.8C0,44,0,39.3,0,30L0,30z"/>
<g>
	<linearGradient id="SVGID_1_" gradientUnits="userSpaceOnUse" x1="30.0007" y1="34.8922" x2="50.2645" y2="34.8922">
		<stop  offset="5.114678e-07" style="stop-color:#005476"/>
		<stop  offset="1" style="stop-color:#00ADEE"/>
	</linearGradient>
	<path class="st1" d="M50.3,42.6H30c16.5,0,13.3-11.2,11.5-15.3c0.2,0.1,0.3,0.3,0.4,0.5L50.3,42.6z"/>
	
		<linearGradient id="SVGID_00000166672443230440011920000010176367513707576737_" gradientUnits="userSpaceOnUse" x1="30.0007" y1="34.778" x2="42.976" y2="34.778">
		<stop  offset="8.524463e-07" style="stop-color:#FFFFFF"/>
		<stop  offset="1" style="stop-color:#00ADEE"/>
	</linearGradient>
	<path style="fill:url(#SVGID_00000166672443230440011920000010176367513707576737_);" d="M30,42.6l9.5-14.9
		c0.4-0.7,1.3-0.8,1.9-0.4C43.3,31.4,46.5,42.6,30,42.6z"/>
	
		<linearGradient id="SVGID_00000026873216962010380500000006656981301878292384_" gradientUnits="userSpaceOnUse" x1="9.7369" y1="34.9101" x2="30.0007" y2="34.9101">
		<stop  offset="0" style="stop-color:#00ADEE"/>
		<stop  offset="1" style="stop-color:#005476"/>
	</linearGradient>
	<path style="fill:url(#SVGID_00000026873216962010380500000006656981301878292384_);" d="M30,42.6H9.7l8.3-14.9
		c0.1-0.2,0.2-0.3,0.4-0.4C16.7,31.5,13.7,42.6,30,42.6z"/>
	
		<linearGradient id="SVGID_00000057131961330400956910000009093556730272549302_" gradientUnits="userSpaceOnUse" x1="17.043" y1="34.7781" x2="30.0007" y2="34.7781">
		<stop  offset="0" style="stop-color:#00ADEE"/>
		<stop  offset="1" style="stop-color:#FFFFFF"/>
	</linearGradient>
	<path style="fill:url(#SVGID_00000057131961330400956910000009093556730272549302_);" d="M30,42.6c-16.3,0-13.3-11.1-11.5-15.3
		c0.6-0.4,1.5-0.3,2,0.4L30,42.6z"/>
	
		<linearGradient id="SVGID_00000002373702174127352910000007524021004501484199_" gradientUnits="userSpaceOnUse" x1="19.2208" y1="23.8655" x2="40.7806" y2="23.8655">
		<stop  offset="0" style="stop-color:#00ADEE"/>
		<stop  offset="1" style="stop-color:#005476"/>
	</linearGradient>
	<path style="fill:url(#SVGID_00000002373702174127352910000007524021004501484199_);" d="M29.2,31.3c-0.2-0.1-0.3-0.2-0.4-0.4
		l-9.6-14.4h21.6C40.8,16.4,20.3,16.4,29.2,31.3z"/>
	
		<linearGradient id="SVGID_00000052796784688009954390000005721332034358460848_" gradientUnits="userSpaceOnUse" x1="26.9666" y1="23.9745" x2="40.7606" y2="23.9745">
		<stop  offset="0" style="stop-color:#00ADEE"/>
		<stop  offset="1" style="stop-color:#FFFFFF"/>
	</linearGradient>
	<path style="fill:url(#SVGID_00000052796784688009954390000005721332034358460848_);" d="M40.7,16.4C40.8,16.4,40.8,16.5,40.7,16.4
		l-9.5,14.4c-0.1,0.2-0.2,0.3-0.4,0.4c-0.5,0.3-1.1,0.4-1.6,0c0,0,0,0,0,0C20.5,16.8,39.7,16.4,40.7,16.4z"/>
</g>
<g>
	<path class="st7" d="M87.6,20.9h3.5v11.6c0,5.2-2.6,7.1-6.5,7.1c-1,0-2.4-0.2-3.2-0.5l0.5-2.8c0.6,0.2,1.5,0.4,2.4,0.4
		c2.1,0,3.4-1,3.4-4.4V20.9z"/>
	<path class="st7" d="M102.9,39.3l-0.2-1.5h-0.1c-0.9,1.1-2.4,1.8-4.3,1.8c-3,0-4.5-2-4.5-4c0-3.3,3-5.1,8.5-5.1v-0.2
		c0-0.7-0.3-2.3-2.9-2.3c-1.4,0-3,0.5-3.9,1.1L94.8,27c1.1-0.7,2.9-1.3,5.2-1.3c4.5,0,5.9,2.8,5.9,5.7v4.6c0,1.3,0.1,2.5,0.2,3.3
		H102.9z M102.4,32.9c-2.8,0-5.1,0.5-5.1,2.4c0,1.2,0.9,1.9,2.1,1.9c1.5,0,2.6-1,2.9-1.9c0.1-0.2,0.1-0.5,0.1-0.7V32.9z"/>
	<path class="st7" d="M113.2,31.8L113.2,31.8c0.4-0.5,0.8-1,1.2-1.5l3.6-4.3h4.3l-5.5,5.4l6.3,7.9h-4.4l-4.3-5.9l-1.3,1.4v4.5h-3.5
		V19.8h3.5V31.8z"/>
	<path class="st7" d="M128.9,22.3c0,1-0.7,1.9-2,1.9c-1.2,0-1.9-0.9-1.9-1.9c0-1,0.8-1.9,2-1.9C128.2,20.4,128.9,21.2,128.9,22.3z
		 M125.2,39.3V26.1h3.5v13.3H125.2z"/>
	<path class="st7" d="M132.6,30.1c0-1.5,0-2.9-0.1-4h3l0.2,2.1h0.1c0.6-1,1.9-2.4,4.4-2.4c1.9,0,3.4,1.1,4,2.6h0.1
		c0.5-0.8,1.1-1.3,1.7-1.8c0.8-0.6,1.7-0.9,3-0.9c2.2,0,4.8,1.5,4.8,6v7.6h-3.4v-7.1c0-2.4-1-3.7-2.7-3.7c-1.3,0-2.2,0.9-2.6,1.8
		c-0.1,0.3-0.2,0.8-0.2,1.1v7.8h-3.4v-7.4c0-2.1-0.9-3.4-2.6-3.4c-1.4,0-2.3,1.1-2.7,2c-0.1,0.4-0.2,0.8-0.2,1.1v7.7h-3.4V30.1z"/>
	<path class="st7" d="M171.4,32.5c0,4.7-3.6,7.1-7.5,7.1c-4.1,0-7.3-2.7-7.3-6.8c0-4.2,3-7.1,7.6-7.1
		C168.5,25.7,171.4,28.6,171.4,32.5z M160.2,32.7c0,2.7,1.6,4.4,3.8,4.4c2.1,0,3.8-1.6,3.8-4.5c0-2.1-1.1-4.4-3.7-4.4
		C161.4,28.2,160.2,30.4,160.2,32.7z"/>
	<path class="st7" d="M176.3,26.1l2.4,6.8c0.4,1.2,0.8,2.2,1,3.3h0.1c0.3-1.1,0.6-2.1,1-3.3l2.4-6.8h3.7l-5.6,13.3h-3.5l-5.4-13.3
		H176.3z"/>
</g>
</svg>
