<?xml version="1.0" encoding="UTF-8"?>
<svg id="Layer_1" data-name="Layer 1" xmlns="http://www.w3.org/2000/svg" xmlns:xlink="http://www.w3.org/1999/xlink" viewBox="0 0 186.9 60">
  <defs>
    <linearGradient id="linear-gradient" x1="30" y1="27.05" x2="50.26" y2="27.05" gradientTransform="translate(0 62) scale(1 -1)" gradientUnits="userSpaceOnUse">
      <stop offset="0" stop-color="#005476"/>
      <stop offset="1" stop-color="#00adee"/>
    </linearGradient>
    <linearGradient id="linear-gradient-2" x1="30" y1="27.17" x2="42.98" y2="27.17" gradientTransform="translate(0 62) scale(1 -1)" gradientUnits="userSpaceOnUse">
      <stop offset="0" stop-color="#fff"/>
      <stop offset="1" stop-color="#00adee"/>
    </linearGradient>
    <linearGradient id="linear-gradient-3" x1="9.74" y1="27.05" x2="30" y2="27.05" gradientTransform="translate(0 62) scale(1 -1)" gradientUnits="userSpaceOnUse">
      <stop offset="0" stop-color="#00adee"/>
      <stop offset="1" stop-color="#005476"/>
    </linearGradient>
    <linearGradient id="linear-gradient-4" x1="17.05" y1="27.17" x2="30" y2="27.17" gradientTransform="translate(0 62) scale(1 -1)" gradientUnits="userSpaceOnUse">
      <stop offset="0" stop-color="#00adee"/>
      <stop offset="1" stop-color="#fff"/>
    </linearGradient>
    <linearGradient id="linear-gradient-5" x1="19.2" y1="38.11" x2="40.76" y2="38.11" gradientTransform="translate(0 62) scale(1 -1)" gradientUnits="userSpaceOnUse">
      <stop offset="0" stop-color="#00adee"/>
      <stop offset="1" stop-color="#005476"/>
    </linearGradient>
    <linearGradient id="linear-gradient-6" x1="26.97" y1="38.07" x2="40.76" y2="38.07" gradientTransform="translate(0 62) scale(1 -1)" gradientUnits="userSpaceOnUse">
      <stop offset="0" stop-color="#00adee"/>
      <stop offset="1" stop-color="#fff"/>
    </linearGradient>
  </defs>
  <path d="m0,30c0-9.3,0-14,1.5-17.7C3.5,7.4,7.4,3.5,12.3,1.5c3.7-1.5,8.4-1.5,17.7-1.5h0c9.3,0,14,0,17.7,1.5,4.9,2,8.8,5.9,10.8,10.8,1.5,3.7,1.5,8.4,1.5,17.7h0c0,9.3,0,14-1.5,17.7-2,4.9-5.9,8.8-10.8,10.8-3.7,1.5-8.4,1.5-17.7,1.5h0c-9.3,0-14,0-17.7-1.5-4.9-2-8.8-5.9-10.8-10.8-1.5-3.7-1.5-8.4-1.5-17.7h0Z" style="fill: #fff; stroke-width: 0px;"/>
  <g>
    <path d="m50.3,42.6h-20.3c16.5,0,13.3-11.2,11.5-15.3.2.1.3.3.4.5l8.4,14.8Z" style="fill: url(#linear-gradient); stroke-width: 0px;"/>
    <path d="m30,42.6l9.5-14.9c.4-.7,1.3-.8,1.9-.4,1.9,4.1,5.1,15.3-11.4,15.3Z" style="fill: url(#linear-gradient-2); stroke-width: 0px;"/>
    <path d="m30,42.6H9.7l8.3-14.9c.1-.2.2-.3.4-.4-1.7,4.2-4.7,15.3,11.6,15.3Z" style="fill: url(#linear-gradient-3); stroke-width: 0px;"/>
    <path d="m30,42.6c-16.3,0-13.3-11.1-11.5-15.3.6-.4,1.5-.3,2,.4l9.5,14.9Z" style="fill: url(#linear-gradient-4); stroke-width: 0px;"/>
    <path d="m29.2,31.3c-.2-.1-.3-.2-.4-.4l-9.6-14.4h21.6c0-.1-20.5-.1-11.6,14.8Z" style="fill: url(#linear-gradient-5); stroke-width: 0px;"/>
    <path d="m40.7,16.4c.1,0,.1.1,0,0l-9.5,14.4c-.1.2-.2.3-.4.4-.5.3-1.1.4-1.6,0h0c-8.7-14.4,10.5-14.8,11.5-14.8Z" style="fill: url(#linear-gradient-6); stroke-width: 0px;"/>
  </g>
  <g>
    <path d="m87.6,20.9h3.5v11.6c0,5.2-2.6,7.1-6.5,7.1-1,0-2.4-.2-3.2-.5l.5-2.8c.6.2,1.5.4,2.4.4,2.1,0,3.4-1,3.4-4.4v-11.4h-.1Z" style="fill: #fff; stroke-width: 0px;"/>
    <path d="m102.9,39.3l-.2-1.5h-.1c-.9,1.1-2.4,1.8-4.3,1.8-3,0-4.5-2-4.5-4,0-3.3,3-5.1,8.5-5.1v-.2c0-.7-.3-2.3-2.9-2.3-1.4,0-3,.5-3.9,1.1l-.7-2.1c1.1-.7,2.9-1.3,5.2-1.3,4.5,0,5.9,2.8,5.9,5.7v4.6c0,1.3.1,2.5.2,3.3h-3.2Zm-.5-6.4c-2.8,0-5.1.5-5.1,2.4,0,1.2.9,1.9,2.1,1.9,1.5,0,2.6-1,2.9-1.9.1-.2.1-.5.1-.7v-1.7Z" style="fill: #fff; stroke-width: 0px;"/>
    <path d="m113.2,31.8h0c.4-.5.8-1,1.2-1.5l3.6-4.3h4.3l-5.5,5.4,6.3,7.9h-4.4l-4.3-5.9-1.3,1.4v4.5h-3.5v-19.5h3.5v12h.1Z" style="fill: #fff; stroke-width: 0px;"/>
    <path d="m128.9,22.3c0,1-.7,1.9-2,1.9-1.2,0-1.9-.9-1.9-1.9s.8-1.9,2-1.9,1.9.8,1.9,1.9Zm-3.7,17v-13.2h3.5v13.3h-3.5v-.1Z" style="fill: #fff; stroke-width: 0px;"/>
    <path d="m132.6,30.1c0-1.5,0-2.9-.1-4h3l.2,2.1h.1c.6-1,1.9-2.4,4.4-2.4,1.9,0,3.4,1.1,4,2.6h.1c.5-.8,1.1-1.3,1.7-1.8.8-.6,1.7-.9,3-.9,2.2,0,4.8,1.5,4.8,6v7.6h-3.4v-7.1c0-2.4-1-3.7-2.7-3.7-1.3,0-2.2.9-2.6,1.8-.1.3-.2.8-.2,1.1v7.8h-3.4v-7.4c0-2.1-.9-3.4-2.6-3.4-1.4,0-2.3,1.1-2.7,2-.1.4-.2.8-.2,1.1v7.7h-3.4v-9.1h0Z" style="fill: #fff; stroke-width: 0px;"/>
    <path d="m171.4,32.5c0,4.7-3.6,7.1-7.5,7.1-4.1,0-7.3-2.7-7.3-6.8s3-7.1,7.6-7.1c4.3,0,7.2,2.9,7.2,6.8Zm-11.2.2c0,2.7,1.6,4.4,3.8,4.4s3.8-1.6,3.8-4.5c0-2.1-1.1-4.4-3.7-4.4-2.7,0-3.9,2.2-3.9,4.5Z" style="fill: #fff; stroke-width: 0px;"/>
    <path d="m176.3,26.1l2.4,6.8c.4,1.2.8,2.2,1,3.3h.1c.3-1.1.6-2.1,1-3.3l2.4-6.8h3.7l-5.6,13.3h-3.5l-5.4-13.3s3.9,0,3.9,0Z" style="fill: #fff; stroke-width: 0px;"/>
  </g>
</svg>