<svg xmlns="http://www.w3.org/2000/svg" xmlns:xlink="http://www.w3.org/1999/xlink" width="100" zoomAndPan="magnify" viewBox="0 0 75 74.999997" height="100" preserveAspectRatio="xMidYMid meet" version="1.0"><defs><clipPath id="755cbd6351"><path d="M 7.5 12.863281 L 67.5 12.863281 L 67.5 62.363281 L 7.5 62.363281 Z M 7.5 12.863281 " clip-rule="nonzero"/></clipPath></defs><g clip-path="url(#755cbd6351)"><path fill="#525260" d="M 58.925781 19.289062 L 50.125 19.289062 L 47.523438 16.054688 C 45.886719 14.027344 43.457031 12.863281 40.851562 12.863281 L 34.148438 12.863281 C 31.546875 12.863281 29.113281 14.027344 27.480469 16.054688 L 24.878906 19.289062 L 16.074219 19.289062 C 11.355469 19.289062 7.511719 23.128906 7.511719 27.847656 L 7.511719 53.566406 C 7.511719 58.289062 11.355469 62.128906 16.074219 62.128906 L 58.925781 62.128906 C 63.648438 62.128906 67.488281 58.285156 67.488281 53.566406 L 67.488281 27.847656 C 67.488281 23.128906 63.644531 19.289062 58.925781 19.289062 Z M 63.203125 53.566406 C 63.203125 55.925781 61.285156 57.847656 58.925781 57.847656 L 16.074219 57.847656 C 13.714844 57.847656 11.796875 55.925781 11.796875 53.566406 L 11.796875 27.847656 C 11.796875 25.488281 13.714844 23.570312 16.074219 23.570312 L 25.898438 23.570312 C 26.546875 23.570312 27.15625 23.273438 27.566406 22.769531 L 30.816406 18.742188 C 31.628906 17.726562 32.847656 17.148438 34.148438 17.148438 L 40.855469 17.148438 C 42.15625 17.148438 43.375 17.726562 44.1875 18.742188 L 47.433594 22.773438 C 47.84375 23.277344 48.453125 23.574219 49.101562 23.574219 L 58.925781 23.574219 C 61.285156 23.574219 63.203125 25.492188 63.203125 27.851562 Z M 37.5 25.714844 C 29.230469 25.714844 22.507812 32.441406 22.507812 40.710938 C 22.507812 48.976562 29.230469 55.703125 37.5 55.703125 C 45.769531 55.703125 52.492188 48.976562 52.492188 40.710938 C 52.492188 32.441406 45.769531 25.714844 37.5 25.714844 Z M 37.5 51.417969 C 31.59375 51.417969 26.789062 46.609375 26.789062 40.707031 C 26.789062 34.800781 31.59375 30 37.5 30 C 43.40625 30 48.210938 34.804688 48.210938 40.710938 C 48.210938 46.613281 43.40625 51.417969 37.5 51.417969 Z M 37.5 51.417969 " fill-opacity="1" fill-rule="nonzero"/></g></svg>